<?xml version="1.0"?><svg width="640" height="480" xmlns="http://www.w3.org/2000/svg">
 <title>swirl black</title>
 <metadata id="metadata1497">image/svg+xml</metadata>
 <g>
  <title>Layer 1</title>
  <g id="g1499">
   <g id="g1404">
    <path fill="#3f3f3f" d="m308.646729,99.126846c0,3.324867 1.996002,8.545776 6.215668,13.767731c0.502228,0.716545 1.002197,1.18856 1.740448,1.902969l0,3.561943l0,0.949867l0,3.323807c-2.734253,-1.424026 -8.703278,-4.511284 -15.664429,-5.936371c0.991577,3.323784 -0.241058,6.175049 -4.233643,6.175049c-2.984222,0 -5.218475,-1.662704 -8.204926,-1.662704c-3.228119,0 -5.218536,1.662704 -5.218536,3.560341c0,1.897102 0.252228,4.037682 1.737091,6.410515c-0.496613,0 -6.958954,-2.136292 -6.958954,-6.410515c0,-4.039276 1.990448,-6.884125 4.97467,-8.544701c-16.169434,2.134712 -29.102951,9.49511 -40.79158,17.567795c0.496628,3.558746 1.739304,6.883606 3.483643,9.497269c0.493286,-5.463852 3.733093,-11.873306 11.442551,-11.873306c6.467865,0 12.93576,1.901367 14.423981,11.161026c-1.740448,-0.713898 -3.724701,-1.422974 -6.467896,-1.422974c-2.234253,0 -4.72467,3.086197 -4.72467,5.456894c0,4.513962 4.480286,9.024185 11.939178,9.024185c19.148102,0 24.62326,-13.772003 24.366577,-22.081223l2.989807,0c0,18.996094 -14.423981,27.065582 -27.356384,27.065582c-19.147522,0 -30.337845,-10.206329 -33.815918,-24.214859c-16.428909,11.63356 -30.846176,23.743378 -49.00325,23.743378c-7.953293,0 -15.421127,-2.850189 -15.421127,-11.401276c0,-8.544159 5.47406,-10.445007 9.945953,-10.445007c5.223511,0 9.21048,3.560349 9.21048,6.88414c0,4.037674 -4.230255,5.700378 -6.721207,4.750488c1.243805,-1.189621 1.740982,-2.372849 1.740982,-4.512878c0,-1.897644 -2.734238,-4.269424 -5.220734,-4.269424c-4.472885,0 -6.721329,3.321671 -6.721329,7.592682c0,5.464371 4.230392,8.07695 10.20108,8.07695c12.68132,0 16.908234,-24.693802 29.843994,-24.693802c6.224045,0 7.46785,4.512344 7.46785,6.172913c0,1.426163 -0.505554,4.986511 -0.505554,4.986511c4.726898,-3.085678 9.448746,-6.647079 14.672852,-10.44928c-0.244415,-1.898697 -0.493851,-3.795792 -0.493851,-5.93531c0,-1.419769 0,-3.086731 0.250549,-4.507553c-11.445328,1.18322 -16.663834,-6.652916 -16.663834,-11.873825c0,-5.22303 3.478073,-9.02417 8.953262,-9.02417c3.483093,0 6.215668,3.086189 6.215668,6.17292c0,2.377098 -0.990479,4.038734 -3.976944,4.038734c-2.23761,0 -3.481415,-1.903496 -3.481415,-3.086723c0,-2.850182 2.730911,-2.613647 2.730911,-3.56459c-0.734909,-0.945633 -1.982056,-0.473091 -2.984238,-0.473091c-1.982056,0 -4.968521,2.138977 -4.968521,5.462769c0,6.882538 7.21785,10.209541 14.672852,9.734329c3.48143,-17.332329 19.894699,-27.308525 35.814713,-27.308525c12.930176,0 23.625519,4.989693 33.078217,13.061844c-1.243805,-1.902428 -2.245422,-4.51181 -2.245422,-7.598007c0,-3.801674 1.499359,-6.889992 4.977417,-6.889992c4.478058,0 6.712311,2.850189 7.714478,5.936378c-4.485809,-1.422966 -8.96051,-0.709076 -8.96051,2.141098zm-95.254944,46.535812c-2.732559,0 -5.971252,4.511841 -9.693741,9.502594c2.489853,-1.189636 8.702164,-4.275284 11.92746,-6.888931c0,-1.189621 0.498291,-2.613663 -2.233719,-2.613663zm30.845642,-24.453522c-1.49881,3.085655 -2.237061,6.174515 -2.237061,8.78125c8.208313,-5.457985 17.154877,-10.921814 27.609161,-14.483231c-8.208282,1.425102 -17.915985,3.8022 -25.372101,5.701981zm36.308533,-24.93248c1.740417,1.898712 1.984833,2.136314 1.984833,4.276352c0,3.560341 -1.984833,5.932121 -7.702759,5.932121c-2.743164,0 -5.47406,-0.946693 -7.711121,-0.946693c-9.449341,0 -16.667175,5.937447 -20.897446,12.347977c9.70546,-2.613655 23.631668,-6.409462 40.298294,-6.409462c-1.002716,-0.716011 -1.499359,-1.904564 -1.499359,-3.567795c0,-2.13472 1.002747,-3.794746 3.978058,-4.983299c-0.241089,4.27581 2.490967,5.936371 7.965027,5.936371c4.230255,0 5.47406,1.424034 5.47406,3.322739l-0.504456,1.426155c5.229675,1.424034 10.951508,3.321136 13.43576,4.275291c-11.940826,-13.535461 -23.383942,-21.373215 -34.820892,-21.609741l0,-0.000015zm34.818665,-15.195908c-0.502228,-1.898438 -1.989868,-6.173874 -4.480835,-6.173874c-5.715118,0 -10.939209,3.800018 -16.655426,3.800018c-4.230286,0 -9.707703,-3.085884 -9.707703,-7.596954c0,-1.904724 1.499359,-3.085869 3.483093,-3.328812c-0.244415,0.714157 -0.496643,1.424088 -0.496643,2.139297c0,1.42514 0.990479,2.61467 2.490967,2.61467c4.965149,0 8.954956,-3.566521 13.923431,-3.566521c1.487671,0 2.98761,0.4785 4.473022,0.951851c-2.984802,-2.139297 -7.203918,-4.274429 -10.937531,-4.98542c-12.438599,-1.901585 -28.59967,-8.312115 -26.859222,-20.659916c0.493835,-4.034588 3.978058,-5.930958 6.96228,-5.458698c-1.487122,1.18848 -2.984222,2.135109 -2.984222,4.038769c0,6.883869 9.198761,7.121578 14.420624,7.121578c5.47406,0 16.919373,-1.188499 16.919373,7.125732c0,2.84507 -2.489807,4.985371 -5.218475,5.457661c7.455566,3.56023 14.911682,8.31316 16.655457,16.622181l-1.98819,1.89843l0,0.000008zm135.790955,79.068863c-18.158173,0 -32.575439,-12.109833 -48.992096,-23.743393c-3.240326,14.008545 -14.670624,24.214874 -33.833771,24.214874c-12.677979,0 -27.353027,-8.070557 -27.353027,-27.065567l2.993164,0c0,8.309219 5.457886,22.081223 24.360992,22.081223c7.472321,0 11.942535,-4.511292 11.942535,-9.024185c0,-2.370712 -2.487061,-5.456924 -4.722473,-5.456924c-2.733093,0 -4.727448,0.709106 -6.466736,1.422974c1.487061,-9.259644 7.954956,-11.161011 14.422852,-11.161011c7.96167,0 10.94812,6.409454 11.442535,11.873291c1.740997,-2.613647 2.982574,-5.938507 3.481415,-9.497253c-11.688599,-8.072678 -24.618805,-15.434151 -40.784302,-17.567802c2.97583,1.659515 4.968506,4.504372 4.968506,8.544174c0,4.27581 -6.462341,6.411064 -6.962311,6.411064c1.487122,-2.372849 1.740448,-4.513428 1.740448,-6.411064c0,-1.897102 -1.740448,-3.559799 -5.221863,-3.559799c-2.987579,0 -5.221863,1.662697 -8.202698,1.662697c-3.981415,0 -5.227478,-2.852318 -4.233643,-6.175049c-6.961182,1.426163 -12.930176,4.512352 -15.662201,5.936378l0,-3.323799l0,-0.94989l0,-3.561928l1.980927,-1.902969c4.226929,-5.221962 5.972931,-10.442863 5.972931,-13.767731c0,-2.850189 -4.473541,-3.564072 -8.956055,-2.140045c1.002197,-3.086182 3.235352,-5.936378 7.710022,-5.936378c3.481415,0 4.974091,3.088318 4.974091,6.889992c0,3.086197 -0.993805,5.69558 -2.234253,7.598007c9.695953,-8.072151 20.13855,-13.061836 33.068176,-13.061836c16.175568,0 32.333832,9.976189 35.821381,27.30851c7.456116,0.474152 14.670624,-2.852844 14.670624,-9.734322c0,-3.323792 -2.734222,-5.462761 -4.968506,-5.462761c-1.005554,0 -2.246002,-0.47361 -2.987579,0.473083c0,0.952019 2.734253,0.714409 2.734253,3.564598c0,1.18322 -0.993805,3.086723 -3.481415,3.086723c-2.987579,0 -3.980835,-1.661644 -3.980835,-4.038734c0,-3.08567 2.734222,-6.17292 6.215088,-6.17292c5.474091,0 8.955475,3.800064 8.955475,9.024162c0,5.220909 -5.221832,13.057053 -16.663788,11.873833c0.247192,1.419754 0.247192,3.086716 0.247192,4.507545c0,2.139511 0,4.036621 -0.247192,5.935303c4.980774,3.803284 9.942566,7.363617 14.429535,10.44928c0,0 -0.494385,-3.560333 -0.494385,-4.986481c0,-1.659515 1.487091,-6.172928 7.456665,-6.172928c12.93576,0 17.162689,24.693802 29.840637,24.693802c5.967377,0 10.202118,-2.612579 10.202118,-8.076965c0,-4.271011 -2.246002,-7.592667 -6.721252,-7.592667c-2.48703,0 -5.221832,2.37178 -5.221832,4.269424c0,2.14003 0.500519,3.323242 1.740967,4.512878c-2.487579,0.950943 -6.714508,-0.712814 -6.714508,-4.750488c0,-3.323792 4.226929,-6.88414 9.208252,-6.88414c4.468536,0 9.942627,1.900833 9.942627,10.444992c0.001099,8.550049 -7.455017,11.400223 -15.416687,11.400223l0,0zm-107.939056,-95.214561c-3.733612,0.711014 -7.954987,2.846085 -10.937531,4.985374c1.48764,-0.473289 2.982544,-0.951851 4.469666,-0.951851c4.979095,0 8.96051,3.566566 13.923431,3.566566c1.746582,0 2.492096,-1.188499 2.492096,-2.614716c0,-0.71521 0,-1.42514 -0.5,-2.13929c1.999359,0.242935 3.487549,1.42408 3.487549,3.32885c0,4.511032 -5.221832,7.596954 -9.702087,7.596954c-5.721863,0 -10.695953,-3.800064 -16.663269,-3.800064c-2.48761,0 -3.974701,4.275436 -4.469666,6.173874l-1.997131,-1.898438c1.744904,-8.309013 9.202148,-13.061905 16.667755,-16.622181c-2.745422,-0.473289 -5.227448,-2.613651 -5.227448,-5.457661c0,-8.314232 11.689758,-7.125732 16.917175,-7.125732c5.221832,0 14.418396,-0.237709 14.418396,-7.121517c0,-1.903721 -1.240448,-2.8503 -2.980896,-4.038811c2.980896,-0.47226 6.461761,1.424091 6.962311,5.458729c1.740387,12.347759 -14.424011,18.758282 -26.860352,20.659912l0,0zm30.341217,40.603386c-2.234833,0 -4.967987,0.946693 -7.708893,0.946693c-5.467957,0 -7.708344,-2.37178 -7.708344,-5.932121c0,-2.140038 0.499969,-2.37764 1.98703,-4.276337c-11.43692,0.237595 -22.884491,8.074287 -34.809723,21.608681c2.47644,-0.953094 8.202759,-2.850197 13.424622,-4.275284l-0.494415,-1.42617c0,-1.898697 1.234894,-3.322731 5.462921,-3.322731c5.472931,0 8.207184,-1.660561 7.967224,-5.936378c2.98761,1.18856 3.974701,2.849663 3.974701,4.983299c0,1.663231 -0.493805,2.851791 -1.492676,3.567802c16.663269,0 30.588409,3.795799 40.536041,6.409462c-4.4758,-6.409462 -11.689178,-12.346916 -21.138489,-12.346916zm22.878357,15.6707c-7.456116,-1.898697 -17.152649,-4.276878 -25.360382,-5.700897c10.442566,3.560333 19.398041,9.02417 27.606354,14.483215c0,-2.607796 -0.751068,-5.696655 -2.245972,-8.782318zm30.845642,24.453537c-1.992676,0 -2.233704,1.424026 -2.233704,2.613647c3.221924,2.613647 9.44873,5.69931 11.925171,6.888931c-3.722473,-4.990219 -6.961151,-9.502579 -9.691467,-9.502579z" id="path1406"/>
   </g>
   <g id="g1408">
    <path fill="#3f3f3f" d="m79.797028,166.252411c-0.701935,-2.65448 -2.781464,-8.630463 -6.26265,-8.630463c-7.990128,0 -15.29364,5.313156 -23.283768,5.313156c-5.913879,0 -13.570572,-4.315231 -13.570572,-10.620026c0,-2.661804 2.097061,-4.314178 4.870834,-4.653458c-0.342178,0.998978 -0.695358,1.990601 -0.695358,2.990616c0,1.991653 1.386337,3.653442 3.481216,3.653442c6.942673,0 12.519852,-4.985397 19.46582,-4.985397c2.079514,0 4.174377,0.669128 6.25061,1.330917c-4.171097,-2.990616 -10.069641,-5.97496 -15.289246,-6.968674c-17.388519,-2.658661 -39.980194,-11.620026 -37.548615,-28.882019c0.690994,-5.6409 5.56073,-8.290146 9.731827,-7.6315c-2.079514,1.660751 -4.171097,2.983292 -4.171097,5.646141c0,9.623154 12.859863,9.955086 20.158997,9.955086c7.653397,0 23.653366,-1.661797 23.653366,9.960327c0,3.97702 -3.481201,6.968674 -7.294739,7.62941c10.422791,4.978058 20.845581,11.622116 23.282654,23.237961l-2.779289,2.65448l0.000008,0z" id="path1410"/>
   </g>
   <g id="g1412">
    <path fill="#3f3f3f" d="m558.75531,163.597931c2.435974,-11.615845 12.85553,-18.259888 23.281555,-23.237961c-3.814636,-0.660736 -7.2948,-3.65239 -7.2948,-7.62941c0,-11.622124 15.997803,-9.960327 23.653381,-9.960327c7.294739,0 20.15686,-0.331932 20.15686,-9.95507c0,-2.661819 -2.090515,-3.984352 -4.169983,-5.646156c4.169983,-0.659683 9.040771,1.990616 9.729614,7.6315c2.435974,17.260925 -20.155762,26.223358 -37.548584,28.882019c-5.216309,0.993713 -11.116028,3.978058 -15.286011,6.968674c2.074036,-0.662842 4.169983,-1.330917 6.249512,-1.330917c6.944885,0 12.522095,4.985397 19.46698,4.985397c2.090454,0 3.481201,-1.661789 3.481201,-3.653442c0,-1.000015 -0.356506,-1.991638 -0.695435,-2.990616c2.773804,0.339279 4.87085,1.990601 4.87085,4.653458c0,6.304794 -7.656616,10.620026 -13.573853,10.620026c-7.990112,0 -15.290344,-5.313156 -23.281555,-5.313156c-3.481201,0 -5.559631,5.977036 -6.267029,8.630463l-2.772705,-2.65448z" id="path1414"/>
   </g>
   <g id="g1416">
    <path fill="#3f3f3f" d="m543.212708,171.561386c-7.564514,5.295349 -19.967041,12.226318 -61.008942,8.279678c-11.196045,-1.059708 -22.293365,-2.695328 -33.587006,-4.331985c-7.060028,-0.962326 -14.216614,-1.830399 -21.3797,-2.503708c-5.043091,-0.481674 -17.74939,-1.734055 -22.488617,-1.251312c-4.945404,0.481674 -6.858215,2.1194 -6.962433,2.985367c0,0.19162 -0.097595,0.579056 0.104218,0.770691c0.104218,0.576981 0.505615,0.963364 0.505615,1.347656c-0.104187,0.868073 -2.423889,1.733002 -4.538513,1.541367c-1.412659,-0.096329 -2.825348,-0.963348 -2.727722,-2.119385c0.201813,-1.056549 3.733459,-5.19902 12.206177,-6.353989c6.858246,-0.864944 14.722198,0 41.651703,2.503677c33.476196,3.178055 55.971405,3.273346 73.014404,-2.212585c12.504517,-3.949783 31.46582,-14.154083 33.275452,-28.694565c1.71759,-12.995972 -10.282349,-19.254677 -20.368408,-20.218033c-20.874176,-1.926727 -41.851349,15.598083 -43.46582,27.923874c-0.908142,6.834641 5.243744,10.589661 11.798157,11.167679c6.962433,0.674347 12.608734,-2.020966 17.548645,-5.486984c8.875244,-6.258698 9.886536,-10.786514 10.183716,-12.902771c0.304932,-2.213638 -0.097595,-4.042969 -1.206482,-5.390625c-0.912537,-1.059708 -1.614441,-1.156052 -2.825317,-1.25238c-0.505676,0 -1.30957,-0.098419 -1.211975,-0.868057c0.104187,-1.058655 1.211975,-0.962326 1.619995,-0.867035c3.326599,0.287964 7.560181,4.139313 6.749634,10.493317c-1.407166,10.496445 -15.325439,19.449432 -30.254913,18.005447c-12.200745,-1.154999 -17.743927,-9.723663 -16.635071,-17.907028c1.815186,-14.250427 23.597443,-28.116547 44.471527,-26.094536c18.76062,1.734047 31.369324,16.080803 29.346802,32.254829c-1.213074,9.146698 -6.452393,15.982376 -13.815125,21.181396z" id="path1418"/>
   </g>
   <g id="g1420">
    <path fill="#3f3f3f" d="m84.959633,151.776993c-2.019165,-16.174149 10.58622,-30.522041 29.350105,-32.255066c20.874115,-2.021759 42.656342,11.842941 44.474838,26.093872c1.105515,8.184021 -4.440918,16.752701 -16.640503,17.9077c-14.92952,1.44426 -28.844505,-7.510117 -30.254982,-18.005188c-0.809395,-6.354065 3.426399,-10.206329 6.752945,-10.493484c0.408012,-0.096436 1.51577,-0.191788 1.616676,0.867294c0.100899,0.768219 -0.70414,0.867844 -1.209755,0.867844c-1.211945,0.096436 -1.916084,0.192871 -2.826431,1.250366c-1.108864,1.347321 -1.5103,3.177826 -1.206467,5.390305c0.298317,2.118744 1.306236,6.645462 10.183701,12.905212c4.939903,3.464981 10.586174,6.159088 17.546455,5.486755c6.554443,-0.579086 12.708496,-4.333893 11.798157,-11.168472c-1.614502,-12.32399 -22.591675,-29.848648 -43.46579,-27.923843c-10.087196,0.963203 -22.08387,7.221893 -20.368446,20.219818c1.811852,14.538605 20.770943,24.744934 33.278755,28.692581c17.042999,5.486755 39.533783,5.390869 73.014175,2.21463c26.92952,-2.503372 34.792419,-3.369614 41.652039,-2.503372c8.470566,1.155533 12.002213,5.296021 12.20253,6.354599c0.101013,1.156036 -1.31131,2.024414 -2.725311,2.119766c-2.116516,0.191269 -4.434509,-0.675507 -4.538284,-1.542816c0,-0.384109 0.402328,-0.768219 0.505554,-1.347321c0.201447,-0.191772 0.103241,-0.576965 0.103241,-0.768738c-0.103241,-0.866791 -2.01944,-2.503906 -6.961731,-2.986588c-4.739182,-0.481598 -17.44783,0.769821 -22.488327,1.251419c-7.163162,0.674469 -14.32074,1.542313 -21.380112,2.503906c-11.29245,1.637665 -22.390732,3.273193 -33.58345,4.333893c-41.045174,3.947647 -53.449852,-2.986572 -61.012215,-8.280457c-7.360588,-5.199066 -12.605431,-12.03685 -13.817368,-21.184631l0,0l0,0l0,0.000015z" id="path1422"/>
   </g>
  </g>
 </g>
</svg>